Coordinates
version=1
nRows=26
nColumns=22
inDegrees=yes

Units are S.I. units (second, meters, Newtons, ...)
If the header above contains a line with 'inDegrees', this indicates whether rotational values are in degrees (yes) or radians (no).

endheader
time	pelvis_tilt	pelvis_list	pelvis_rotation	pelvis_tx	pelvis_ty	pelvis_tz	hip_flexion_r	hip_adduction_r	hip_rotation_r	knee_angle_r	ankle_angle_r	subtalar_angle_r	hip_flexion_l	hip_adduction_l	hip_rotation_l	knee_angle_l	ankle_angle_l	subtalar_angle_l	lumbar_extension	lumbar_bending	lumbar_rotation
      1.55000000	     -2.62032548	     -3.38654282	      1.99706474	      1.03659743	      1.01194743	      0.24942479	      4.84550993	      2.17974521	     -4.74246055	    -16.45572094	     10.69690895	      0.94866139	      1.56060694	     -7.42740000	     -8.81668525	    -10.33698951	     10.33339210	      2.85017335	     -2.95217820	      1.27057741	     -1.04363685
      1.56000000	     -2.66506206	     -3.34251720	      2.20234037	      1.03567162	      1.01190954	      0.25042340	      5.00661451	      2.19028144	     -4.91369718	    -16.58101923	     10.70651640	      0.86538315	      1.79242712	     -7.45827650	     -8.57865883	    -10.48354176	     10.27997686	      2.93827626	     -3.04678579	      1.28632514	     -1.06170526
      1.57000000	     -2.70665723	     -3.30917809	      2.39830832	      1.03469053	      1.01187574	      0.25147685	      5.17697457	      2.21441081	     -5.07449761	    -16.72263799	     10.71760491	      0.78148735	      2.02716793	     -7.50366975	     -8.36663394	    -10.63542107	     10.21599673	      3.02505621	     -3.15315043	      1.31926537	     -1.07172583
      1.58000000	     -2.75089556	     -3.27978636	      2.59742391	      1.03364829	      1.01183989	      0.25255265	      5.35456596	      2.24341327	     -5.22971472	    -16.86456747	     10.72369603	      0.70069145	      2.27680565	     -7.55361519	     -8.14741040	    -10.80061135	     10.15260233	      3.11111866	     -3.26492897	      1.36124908	     -1.07431744
      1.59000000	     -2.80140941	     -3.25411747	      2.80232473	      1.03254374	      1.01179624	      0.25364636	      5.54305630	      2.27620417	     -5.38153205	    -17.00698231	     10.72546875	      0.62205389	      2.54922021	     -7.60785768	     -7.91681755	    -10.98494546	     10.09159235	      3.19880195	     -3.37745468	      1.41104522	     -1.06977651
      1.60000000	     -2.85934343	     -3.23260161	      3.01613712	      1.03137526	      1.01174020	      0.25474644	      5.74476527	      2.31148148	     -5.53976330	    -17.15235873	     10.72484929	      0.54513635	      2.84686658	     -7.66588452	     -7.67473156	    -11.18885881	     10.03147503	      3.28969069	     -3.48896921	      1.47078016	     -1.06166935
      1.61000000	     -2.92530977	     -3.21409011	      3.23961327	      1.03016064	      1.01166722	      0.25587868	      5.95759365	      2.34878113	     -5.71176392	    -17.29634317	     10.72217996	      0.46892325	      3.17116892	     -7.72878841	     -7.41841313	    -11.41591752	      9.97382564	      3.38450473	     -3.59722886	      1.53124532	     -1.04659480
      1.62000000	     -3.00235231	     -3.19663522	      3.47568670	      1.02889681	      1.01157369	      0.25701726	      6.18425655	      2.38441648	     -5.89953019	    -17.43917538	     10.71726039	      0.38918506	      3.52535085	     -7.79120539	     -7.14583313	    -11.66392907	      9.92125856	      3.48635290	     -3.69864377	      1.59518469	     -1.02887125
      1.63000000	     -3.09324349	     -3.17901141	      3.72219421	      1.02759213	      1.01145327	      0.25817762	      6.43025993	      2.41825594	     -6.09229471	    -17.58613427	     10.70740523	      0.30015816	      3.91113783	     -7.85218911	     -6.85318887	    -11.93318953	      9.87754358	      3.59968266	     -3.78935407	      1.65688387	     -1.01033925
      1.64000000	     -3.16534986	     -3.16764116	      4.00425610	      1.02629572	      1.01135892	      0.25929262	      6.64197611	      2.45249139	     -6.34896399	    -17.70757341	     10.71118737	      0.22835160	      4.29377759	     -7.91751164	     -6.54423502	    -12.21521404	      9.80571773	      3.70042661	     -3.90029749	      1.73050091	     -0.99717414
      1.65000000	     -3.25473658	     -3.15528901	      4.30328667	      1.02495208	      1.01123342	      0.26039496	      6.87878244	      2.48249465	     -6.59956808	    -17.83791156	     10.70459391	      0.14920537	      4.71370099	     -7.97548291	     -6.19897212	    -12.51901804	      9.74819739	      3.80972150	     -3.99728107	      1.80525570	     -0.99372288
      1.66000000	     -3.35087503	     -3.14479127	      4.62233203	      1.02356869	      1.01109723	      0.26147216	      7.12307121	      2.50975278	     -6.86154321	    -17.96521711	     10.69682151	      0.06972897	      5.16102954	     -8.02972457	     -5.83273595	    -12.84544915	      9.68895013	      3.92174261	     -4.09073521	      1.88517645	     -0.99357864
      1.67000000	     -3.44948755	     -3.13781475	      4.96244582	      1.02213034	      1.01095418	      0.26251940	      7.37276761	      2.53404144	     -7.14595484	    -18.09253479	     10.68929013	     -0.00244167	      5.63496615	     -8.08145042	     -5.44775578	    -13.19776920	      9.62046628	      4.03048730	     -4.18779096	      1.97389272	     -1.00148401
      1.68000000	     -3.57970401	     -3.13042124	      5.30649247	      1.02059219	      1.01075638	      0.26358052	      7.66936527	      2.55272646	     -7.41241188	    -18.23473459	     10.67262221	     -0.07880541	      6.16876258	     -8.12442879	     -5.03711608	    -13.58401110	      9.57145132	      4.14609958	     -4.26122518	      2.05905435	     -1.00333536
      1.69000000	     -3.70277721	     -3.12887807	      5.67925530	      1.01898687	      1.01056555	      0.26459179	      7.95812549	      2.56538870	     -7.73942578	    -18.36920014	     10.66352159	     -0.13676685	      6.72779227	     -8.16622954	     -4.61578819	    -14.00541099	      9.49121466	      4.24902586	     -4.34931760	      2.15717464	     -1.01979762
      1.70000000	     -3.85042719	     -3.12946557	      6.06340503	      1.01728123	      1.01033292	      0.26558484	      8.28251896	      2.56865116	     -8.08404803	    -18.51168820	     10.65437499	     -0.19047858	      7.34765272	     -8.20025901	     -4.18487348	    -14.47031419	      9.40577162	      4.34895231	     -4.41981122	      2.25816699	     -1.03595541
      1.71000000	     -4.00959073	     -3.13145451	      6.46560123	      1.01548792	      1.01007990	      0.26654879	      8.62371179	      2.56180736	     -8.45680304	    -18.65435873	     10.64516884	     -0.23653790	      8.01431656	     -8.22473316	     -3.74010797	    -14.97640410	      9.30738456	      4.44055107	     -4.48660927	      2.36003987	     -1.05948509
      1.72000000	     -4.18978653	     -3.13610518	      6.88332784	      1.01359900	      1.00979032	      0.26747503	      8.99677638	      2.54419308	     -8.84682310	    -18.80601619	     10.63648112	     -0.28005858	      8.74270294	     -8.23865870	     -3.29073016	    -15.53159525	      9.19764260	      4.52606464	     -4.53778066	      2.46410411	     -1.08779860
      1.73000000	     -4.38143564	     -3.14253438	      7.32059704	      1.01162889	      1.00948037	      0.26834044	      9.38667288	      2.51428881	     -9.25466840	    -18.96068401	     10.62784538	     -0.31906578	      9.52016081	     -8.23869591	     -2.83191297	    -16.13091316	      9.07622227	      4.60183210	     -4.58198321	      2.57203153	     -1.12532516
      1.74000000	     -4.58026878	     -3.15189027	      7.78125319	      1.00957839	      1.00915609	      0.26914525	      9.78870220	      2.47351261	     -9.68657113	    -19.11632587	     10.61968008	     -0.35357179	     10.34357503	     -8.22513240	     -2.36611312	    -16.77595559	      8.94211684	      4.66818543	     -4.62324557	      2.68184472	     -1.17400868
      1.75000000	     -4.78555624	     -3.16429431	      8.26373407	      1.00745247	      1.00881849	      0.26987443	     10.20169485	      2.42101642	    -10.13571250	    -19.27529634	     10.61153712	     -0.38554540	     11.20924066	     -8.19552417	     -1.89703543	    -17.46264484	      8.80249144	      4.72921844	     -4.65813719	      2.79564164	     -1.23107585
      1.76000000	     -5.01701820	     -3.18289518	      8.74694519	      1.00523863	      1.00843286	      0.27058767	     10.65498317	      2.36226161	    -10.57893603	    -19.44696614	     10.60320580	     -0.42305660	     12.14019329	     -8.15817434	     -1.47175733	    -18.20210367	      8.66582255	      4.79887931	     -4.66618158	      2.90449474	     -1.27602407
      1.77000000	     -5.19888770	     -3.19027071	      9.28439687	      1.00297148	      1.00813547	      0.27113553	     11.04481229	      2.27631908	    -11.07829475	    -19.60353450	     10.59533916	     -0.44883017	     13.03373078	     -8.08038185	     -0.96406149	    -18.95122041	      8.52584045	      4.87615580	     -4.72997625	      3.01603177	     -1.37045265
      1.78000000	     -5.41663016	     -3.20186926	      9.79808597	      1.00061307	      1.00777646	      0.27171419	     11.49630264	      2.18593412	    -11.53262474	    -19.79269411	     10.58301482	     -0.48639451	     13.99775587	     -7.99981251	     -0.54889190	    -19.76507344	      8.41024095	      5.00376604	     -4.75394082	      3.10947941	     -1.43332210
      1.79000000	     -5.57942190	     -3.18544494	     10.34781617	      0.99821520	      1.00752448	      0.27212101	     11.88034067	      2.05329784	    -12.02243714	    -19.97710659	     10.58072984	     -0.51714684	     14.90229128	     -7.86541830	     -0.07905883	    -20.59326507	      8.31145966	      5.15951749	     -4.83866458	      3.18926223	     -1.53213162
      1.80000000	     -5.74284848	     -3.15235048	     10.87777982	      0.99575333	      1.00728008	      0.27247158	     12.27926058	      1.89348757	    -12.47960237	    -20.18981279	     10.57858401	     -0.55434317	     15.81503799	     -7.70631543	      0.32255618	    -21.47677829	      8.26034528	      5.38323855	     -4.92080896	      3.24742469	     -1.60984678
